# xmcd
#
# Track frame offsets:
#	150
#	17028
#	36151
#	46923
#	61104
#	80080
#	97026
#	111822
#	131304
#	149982
#	162673
#	178690
#	194693
#	215482
#	225399
#
# Disc length: 3196 seconds
#
# Revision: 1
# Processed by: cddbd v1.5.1PL0 Copyright (c) Steve Scherf et al.
# Submitted via: audiograbber 1.82.02
#
DISCID=da0c7a0f
DTITLE=Various Artist - ChartBusters 60087
DYEAR=1900
DGENRE=Karaoke
TTITLE0=Alan Jackson - Here in the real world
TTITLE1=Kathy Mattea - Where've you been
TTITLE2=Ricky Van Shelton - From a jack to a king
TTITLE3=Patty Loveless - The lonely side of love
TTITLE4=Kieth Whitley - It ain't nothin'
TTITLE5=Reba McEntire - 'Till love comes again
TTITLE6=Randy Travis - Is it still over
TTITLE7=Mary-Chapin Carpenter - Never had it so good
TTITLE8=Paul Overstreet - All the fun
TTITLE9=Holly Dunn - Are you ever goning to love me
TTITLE10=George Strait - What's going on in your world
TTITLE11=Highway 101 - Who's lonely now
TTITLE12=Restless Heart - Fast movin' train
TTITLE13=McCarters - Up and gone
TTITLE14=Shenandoah - The church on cumberland road
EXTD=
EXTT0=
EXTT1=
EXTT2=
EXTT3=
EXTT4=
EXTT5=
EXTT6=
EXTT7=
EXTT8=
EXTT9=
EXTT10=
EXTT11=
EXTT12=
EXTT13=
EXTT14=
PLAYORDER=
